<?xml version="1.0" standalone="no"?>
<!DOCTYPE svg PUBLIC "-//W3C//DTD SVG 20010904//EN"
 "http://www.w3.org/TR/2001/REC-SVG-20010904/DTD/svg10.dtd">
<svg version="1.0" xmlns="http://www.w3.org/2000/svg"
 width="1600.000000pt" height="1600.000000pt" viewBox="0 0 1600.000000 1600.000000"
 preserveAspectRatio="xMidYMid meet">
<metadata>
Created by potrace 1.11, written by Peter Selinger 2001-2013
</metadata>
<g transform="translate(0.000000,1600.000000) scale(0.100000,-0.100000)"
fill="#000000" stroke="none">
<path d="M0 8000 l0 -8000 8000 0 8000 0 0 8000 0 8000 -8000 0 -8000 0 0
-8000z m5752 2863 l88 -88 0 -262 0 -263 -1160 0 -1160 0 0 -890 0 -890 812 0
813 0 87 -87 88 -88 0 -382 0 -383 -900 0 -900 0 0 -895 0 -895 1077 0 1078 0
82 -82 83 -83 0 -262 0 -263 -1547 0 -1548 0 -82 82 -83 83 0 2867 0 2868
1542 0 1543 0 87 -87z m3790 0 l88 -88 0 -2862 0 -2863 -382 0 -383 0 -82 82
-83 83 0 2517 0 2518 -80 0 -80 0 0 -1300 0 -1300 -453 0 -452 0 -88 88 -87
87 0 1213 0 1212 -75 0 -75 0 0 -2600 0 -2600 -387 0 -388 0 -82 82 -83 83 0
2867 0 2868 1542 0 1543 0 87 -87z m1460 0 l88 -88 0 -2517 0 -2518 695 0 695
0 0 2605 0 2605 377 0 378 0 87 -87 88 -88 0 -2862 0 -2863 -1547 0 -1548 0
-82 82 -83 83 0 2867 0 2868 382 0 383 0 87 -87z"/>
<path d="M2680 8085 l0 -2765 1445 0 1445 0 0 160 0 160 -1160 0 -1160 0 0
1080 0 1080 900 0 900 0 0 285 0 285 -900 0 -900 0 0 1075 0 1075 1160 0 1160
0 0 165 0 165 -1445 0 -1445 0 0 -2765z"/>
<path d="M6470 8085 l0 -2765 285 0 285 0 0 2600 0 2600 260 0 260 0 0 -1300
0 -1300 355 0 355 0 0 1300 0 1300 260 0 260 0 0 -2600 0 -2600 285 0 285 0 0
2765 0 2765 -1445 0 -1445 0 0 -2765z"/>
<path d="M10250 8085 l0 -2765 1445 0 1445 0 0 2765 0 2765 -282 -2 -283 -3
-3 -2602 -2 -2603 -875 0 -875 0 0 2605 0 2605 -285 0 -285 0 0 -2765z"/>
</g>
</svg>
